<mxfile host="app.diagrams.net" agent="Mozilla/5.0 (X11; Linux x86_64) AppleWebKit/537.36 (KHTML, like Gecko) Chrome/133.0.0.0 Safari/537.36" version="26.0.16">
  <diagram name="Page-1" id="rTU0iAKAZ2VxzZM9UxEf">
    <mxGraphModel dx="943" dy="1624" grid="1" gridSize="10" guides="1" tooltips="1" connect="1" arrows="1" fold="1" page="1" pageScale="1" pageWidth="850" pageHeight="1100" math="0" shadow="0">
      <root>
        <mxCell id="0" />
        <mxCell id="1" parent="0" />
        <mxCell id="pxrOHtRDB23Sc_MLueAU-42" style="edgeStyle=none;shape=link;rounded=0;orthogonalLoop=1;jettySize=auto;html=1;exitX=0;exitY=0;exitDx=0;exitDy=0;" edge="1" parent="1" source="pxrOHtRDB23Sc_MLueAU-2" target="pxrOHtRDB23Sc_MLueAU-8">
          <mxGeometry relative="1" as="geometry" />
        </mxCell>
        <mxCell id="pxrOHtRDB23Sc_MLueAU-83" value="N" style="edgeStyle=none;shape=link;rounded=0;orthogonalLoop=1;jettySize=auto;html=1;exitX=0.5;exitY=0;exitDx=0;exitDy=0;entryX=0.5;entryY=1;entryDx=0;entryDy=0;" edge="1" parent="1" source="pxrOHtRDB23Sc_MLueAU-2" target="pxrOHtRDB23Sc_MLueAU-82">
          <mxGeometry y="-10" relative="1" as="geometry">
            <mxPoint as="offset" />
          </mxGeometry>
        </mxCell>
        <mxCell id="pxrOHtRDB23Sc_MLueAU-2" value="Músico" style="rounded=0;whiteSpace=wrap;html=1;" vertex="1" parent="1">
          <mxGeometry x="300" y="100" width="80" height="40" as="geometry" />
        </mxCell>
        <mxCell id="pxrOHtRDB23Sc_MLueAU-3" value="&lt;u&gt;CC&lt;/u&gt;" style="ellipse;whiteSpace=wrap;html=1;direction=west;" vertex="1" parent="1">
          <mxGeometry x="180" y="95" width="80" height="50" as="geometry" />
        </mxCell>
        <mxCell id="pxrOHtRDB23Sc_MLueAU-4" value="Nome" style="ellipse;whiteSpace=wrap;html=1;direction=west;" vertex="1" parent="1">
          <mxGeometry x="180" y="150" width="80" height="50" as="geometry" />
        </mxCell>
        <mxCell id="pxrOHtRDB23Sc_MLueAU-6" value="" style="endArrow=none;html=1;rounded=0;entryX=0;entryY=0.5;entryDx=0;entryDy=0;exitX=0;exitY=0.5;exitDx=0;exitDy=0;" edge="1" parent="1" source="pxrOHtRDB23Sc_MLueAU-3" target="pxrOHtRDB23Sc_MLueAU-2">
          <mxGeometry width="50" height="50" relative="1" as="geometry">
            <mxPoint x="360" y="290" as="sourcePoint" />
            <mxPoint x="410" y="240" as="targetPoint" />
          </mxGeometry>
        </mxCell>
        <mxCell id="pxrOHtRDB23Sc_MLueAU-8" value="Telemóvel" style="ellipse;whiteSpace=wrap;html=1;direction=west;" vertex="1" parent="1">
          <mxGeometry x="180" y="40" width="80" height="50" as="geometry" />
        </mxCell>
        <mxCell id="pxrOHtRDB23Sc_MLueAU-10" value="Telefone" style="ellipse;whiteSpace=wrap;html=1;direction=west;" vertex="1" parent="1">
          <mxGeometry x="400" y="-60" width="80" height="50" as="geometry" />
        </mxCell>
        <mxCell id="pxrOHtRDB23Sc_MLueAU-11" value="Cod Postal" style="ellipse;whiteSpace=wrap;html=1;direction=west;" vertex="1" parent="1">
          <mxGeometry x="340" y="-100" width="80" height="50" as="geometry" />
        </mxCell>
        <mxCell id="pxrOHtRDB23Sc_MLueAU-12" value="Rua" style="ellipse;whiteSpace=wrap;html=1;direction=west;" vertex="1" parent="1">
          <mxGeometry x="260" y="-100" width="80" height="50" as="geometry" />
        </mxCell>
        <mxCell id="pxrOHtRDB23Sc_MLueAU-13" value="Local" style="ellipse;whiteSpace=wrap;html=1;direction=west;" vertex="1" parent="1">
          <mxGeometry x="200" y="-60" width="80" height="50" as="geometry" />
        </mxCell>
        <mxCell id="pxrOHtRDB23Sc_MLueAU-18" value="Instrumento" style="rounded=0;whiteSpace=wrap;html=1;" vertex="1" parent="1">
          <mxGeometry x="540" y="100" width="80" height="40" as="geometry" />
        </mxCell>
        <mxCell id="pxrOHtRDB23Sc_MLueAU-19" value="&lt;u&gt;Código Interno&lt;/u&gt;" style="ellipse;whiteSpace=wrap;html=1;direction=west;" vertex="1" parent="1">
          <mxGeometry x="490" y="20" width="80" height="50" as="geometry" />
        </mxCell>
        <mxCell id="pxrOHtRDB23Sc_MLueAU-20" value="Nome" style="ellipse;whiteSpace=wrap;html=1;direction=west;" vertex="1" parent="1">
          <mxGeometry x="600" y="20" width="80" height="50" as="geometry" />
        </mxCell>
        <mxCell id="pxrOHtRDB23Sc_MLueAU-22" value="" style="endArrow=none;html=1;rounded=0;exitX=0.25;exitY=0;exitDx=0;exitDy=0;entryX=0.5;entryY=0;entryDx=0;entryDy=0;" edge="1" parent="1" source="pxrOHtRDB23Sc_MLueAU-18" target="pxrOHtRDB23Sc_MLueAU-19">
          <mxGeometry width="50" height="50" relative="1" as="geometry">
            <mxPoint x="720" y="250" as="sourcePoint" />
            <mxPoint x="770" y="200" as="targetPoint" />
          </mxGeometry>
        </mxCell>
        <mxCell id="pxrOHtRDB23Sc_MLueAU-72" style="edgeStyle=none;shape=link;rounded=0;orthogonalLoop=1;jettySize=auto;html=1;exitX=0;exitY=0.5;exitDx=0;exitDy=0;entryX=1;entryY=0.5;entryDx=0;entryDy=0;" edge="1" parent="1" source="pxrOHtRDB23Sc_MLueAU-23" target="pxrOHtRDB23Sc_MLueAU-57">
          <mxGeometry relative="1" as="geometry" />
        </mxCell>
        <mxCell id="pxrOHtRDB23Sc_MLueAU-74" value="1" style="edgeLabel;html=1;align=center;verticalAlign=middle;resizable=0;points=[];" vertex="1" connectable="0" parent="pxrOHtRDB23Sc_MLueAU-72">
          <mxGeometry x="-0.0333" y="-2" relative="1" as="geometry">
            <mxPoint y="17" as="offset" />
          </mxGeometry>
        </mxCell>
        <mxCell id="pxrOHtRDB23Sc_MLueAU-75" style="edgeStyle=none;shape=link;rounded=0;orthogonalLoop=1;jettySize=auto;html=1;exitX=0;exitY=0;exitDx=0;exitDy=0;entryX=1;entryY=1;entryDx=0;entryDy=0;" edge="1" parent="1" source="pxrOHtRDB23Sc_MLueAU-23" target="pxrOHtRDB23Sc_MLueAU-63">
          <mxGeometry relative="1" as="geometry" />
        </mxCell>
        <mxCell id="pxrOHtRDB23Sc_MLueAU-76" value="N" style="edgeLabel;html=1;align=center;verticalAlign=middle;resizable=0;points=[];" vertex="1" connectable="0" parent="pxrOHtRDB23Sc_MLueAU-75">
          <mxGeometry x="-0.1426" y="-1" relative="1" as="geometry">
            <mxPoint x="3" y="-10" as="offset" />
          </mxGeometry>
        </mxCell>
        <mxCell id="pxrOHtRDB23Sc_MLueAU-23" value="Disco" style="rounded=0;whiteSpace=wrap;html=1;" vertex="1" parent="1">
          <mxGeometry x="540" y="255" width="80" height="40" as="geometry" />
        </mxCell>
        <mxCell id="pxrOHtRDB23Sc_MLueAU-24" value="&lt;u&gt;Identificador&lt;/u&gt;" style="ellipse;whiteSpace=wrap;html=1;direction=west;" vertex="1" parent="1">
          <mxGeometry x="630" y="200" width="80" height="50" as="geometry" />
        </mxCell>
        <mxCell id="pxrOHtRDB23Sc_MLueAU-25" value="Titulo" style="ellipse;whiteSpace=wrap;html=1;direction=west;" vertex="1" parent="1">
          <mxGeometry x="660" y="270" width="80" height="50" as="geometry" />
        </mxCell>
        <mxCell id="pxrOHtRDB23Sc_MLueAU-54" style="edgeStyle=none;shape=link;rounded=0;orthogonalLoop=1;jettySize=auto;html=1;exitX=1;exitY=1;exitDx=0;exitDy=0;entryX=0.75;entryY=1;entryDx=0;entryDy=0;" edge="1" parent="1" source="pxrOHtRDB23Sc_MLueAU-26" target="pxrOHtRDB23Sc_MLueAU-23">
          <mxGeometry relative="1" as="geometry" />
        </mxCell>
        <mxCell id="pxrOHtRDB23Sc_MLueAU-26" value="Formato" style="ellipse;whiteSpace=wrap;html=1;direction=west;" vertex="1" parent="1">
          <mxGeometry x="600" y="330" width="80" height="50" as="geometry" />
        </mxCell>
        <mxCell id="pxrOHtRDB23Sc_MLueAU-27" value="Data" style="ellipse;whiteSpace=wrap;html=1;direction=west;" vertex="1" parent="1">
          <mxGeometry x="510" y="330" width="80" height="50" as="geometry" />
        </mxCell>
        <mxCell id="pxrOHtRDB23Sc_MLueAU-31" value="" style="endArrow=none;html=1;rounded=0;entryX=1;entryY=0.5;entryDx=0;entryDy=0;exitX=1;exitY=0.5;exitDx=0;exitDy=0;" edge="1" parent="1" source="pxrOHtRDB23Sc_MLueAU-23" target="pxrOHtRDB23Sc_MLueAU-25">
          <mxGeometry width="50" height="50" relative="1" as="geometry">
            <mxPoint x="560" y="490" as="sourcePoint" />
            <mxPoint x="610" y="440" as="targetPoint" />
          </mxGeometry>
        </mxCell>
        <mxCell id="pxrOHtRDB23Sc_MLueAU-33" value="Música" style="rounded=0;whiteSpace=wrap;html=1;" vertex="1" parent="1">
          <mxGeometry x="300" y="255" width="80" height="40" as="geometry" />
        </mxCell>
        <mxCell id="pxrOHtRDB23Sc_MLueAU-34" value="Titulo" style="ellipse;whiteSpace=wrap;html=1;direction=west;" vertex="1" parent="1">
          <mxGeometry x="280" y="330" width="80" height="50" as="geometry" />
        </mxCell>
        <mxCell id="pxrOHtRDB23Sc_MLueAU-36" value="&lt;u&gt;Identificador&lt;/u&gt;" style="ellipse;whiteSpace=wrap;html=1;direction=west;" vertex="1" parent="1">
          <mxGeometry x="200" y="290" width="80" height="50" as="geometry" />
        </mxCell>
        <mxCell id="pxrOHtRDB23Sc_MLueAU-43" value="toca" style="rhombus;whiteSpace=wrap;html=1;" vertex="1" parent="1">
          <mxGeometry x="425" y="100" width="80" height="40" as="geometry" />
        </mxCell>
        <mxCell id="pxrOHtRDB23Sc_MLueAU-45" value="" style="endArrow=none;html=1;rounded=0;exitX=0.75;exitY=0;exitDx=0;exitDy=0;entryX=1;entryY=0;entryDx=0;entryDy=0;" edge="1" parent="1" source="pxrOHtRDB23Sc_MLueAU-18" target="pxrOHtRDB23Sc_MLueAU-20">
          <mxGeometry width="50" height="50" relative="1" as="geometry">
            <mxPoint x="570" y="110" as="sourcePoint" />
            <mxPoint x="540" y="80" as="targetPoint" />
          </mxGeometry>
        </mxCell>
        <mxCell id="pxrOHtRDB23Sc_MLueAU-46" value="N" style="endArrow=none;html=1;rounded=0;exitX=1;exitY=0.5;exitDx=0;exitDy=0;entryX=0;entryY=0.5;entryDx=0;entryDy=0;" edge="1" parent="1" source="pxrOHtRDB23Sc_MLueAU-2" target="pxrOHtRDB23Sc_MLueAU-43">
          <mxGeometry width="50" height="50" relative="1" as="geometry">
            <mxPoint x="570" y="220" as="sourcePoint" />
            <mxPoint x="620" y="170" as="targetPoint" />
          </mxGeometry>
        </mxCell>
        <mxCell id="pxrOHtRDB23Sc_MLueAU-47" value="N" style="endArrow=none;html=1;rounded=0;entryX=0;entryY=0.5;entryDx=0;entryDy=0;exitX=1;exitY=0.5;exitDx=0;exitDy=0;" edge="1" parent="1" source="pxrOHtRDB23Sc_MLueAU-43" target="pxrOHtRDB23Sc_MLueAU-18">
          <mxGeometry width="50" height="50" relative="1" as="geometry">
            <mxPoint x="510" y="120" as="sourcePoint" />
            <mxPoint x="435" y="130" as="targetPoint" />
          </mxGeometry>
        </mxCell>
        <mxCell id="pxrOHtRDB23Sc_MLueAU-48" value="" style="endArrow=none;html=1;rounded=0;exitX=0;exitY=0.5;exitDx=0;exitDy=0;entryX=1;entryY=0;entryDx=0;entryDy=0;" edge="1" parent="1" target="pxrOHtRDB23Sc_MLueAU-10">
          <mxGeometry width="50" height="50" relative="1" as="geometry">
            <mxPoint x="380" y="4.999999999999773" as="sourcePoint" />
            <mxPoint x="540" y="100" as="targetPoint" />
          </mxGeometry>
        </mxCell>
        <mxCell id="pxrOHtRDB23Sc_MLueAU-49" value="" style="endArrow=none;html=1;rounded=0;exitX=0;exitY=1;exitDx=0;exitDy=0;entryX=0.5;entryY=0;entryDx=0;entryDy=0;" edge="1" parent="1" target="pxrOHtRDB23Sc_MLueAU-11">
          <mxGeometry width="50" height="50" relative="1" as="geometry">
            <mxPoint x="368.38197078945973" y="-12.616395662423201" as="sourcePoint" />
            <mxPoint x="550" y="110" as="targetPoint" />
          </mxGeometry>
        </mxCell>
        <mxCell id="pxrOHtRDB23Sc_MLueAU-50" value="" style="endArrow=none;html=1;rounded=0;exitX=1;exitY=1;exitDx=0;exitDy=0;entryX=0.5;entryY=0;entryDx=0;entryDy=0;" edge="1" parent="1" target="pxrOHtRDB23Sc_MLueAU-12">
          <mxGeometry width="50" height="50" relative="1" as="geometry">
            <mxPoint x="311.61802921054027" y="-12.616395662423656" as="sourcePoint" />
            <mxPoint x="560" y="120" as="targetPoint" />
          </mxGeometry>
        </mxCell>
        <mxCell id="pxrOHtRDB23Sc_MLueAU-51" value="" style="endArrow=none;html=1;rounded=0;exitX=1;exitY=0.5;exitDx=0;exitDy=0;entryX=0;entryY=0;entryDx=0;entryDy=0;" edge="1" parent="1" target="pxrOHtRDB23Sc_MLueAU-13">
          <mxGeometry width="50" height="50" relative="1" as="geometry">
            <mxPoint x="300" y="4.999999999999773" as="sourcePoint" />
            <mxPoint x="570" y="130" as="targetPoint" />
          </mxGeometry>
        </mxCell>
        <mxCell id="pxrOHtRDB23Sc_MLueAU-53" value="" style="endArrow=none;html=1;rounded=0;exitX=0;exitY=0.5;exitDx=0;exitDy=0;entryX=0;entryY=1;entryDx=0;entryDy=0;" edge="1" parent="1" source="pxrOHtRDB23Sc_MLueAU-4" target="pxrOHtRDB23Sc_MLueAU-2">
          <mxGeometry width="50" height="50" relative="1" as="geometry">
            <mxPoint x="490" y="190" as="sourcePoint" />
            <mxPoint x="540" y="140" as="targetPoint" />
          </mxGeometry>
        </mxCell>
        <mxCell id="pxrOHtRDB23Sc_MLueAU-55" value="" style="endArrow=none;html=1;rounded=0;entryX=1;entryY=0;entryDx=0;entryDy=0;exitX=1;exitY=0;exitDx=0;exitDy=0;" edge="1" parent="1" source="pxrOHtRDB23Sc_MLueAU-23" target="pxrOHtRDB23Sc_MLueAU-24">
          <mxGeometry width="50" height="50" relative="1" as="geometry">
            <mxPoint x="590" y="265" as="sourcePoint" />
            <mxPoint x="680" y="260" as="targetPoint" />
          </mxGeometry>
        </mxCell>
        <mxCell id="pxrOHtRDB23Sc_MLueAU-56" value="" style="endArrow=none;html=1;rounded=0;entryX=0.25;entryY=1;entryDx=0;entryDy=0;exitX=0.5;exitY=1;exitDx=0;exitDy=0;" edge="1" parent="1" source="pxrOHtRDB23Sc_MLueAU-27" target="pxrOHtRDB23Sc_MLueAU-23">
          <mxGeometry width="50" height="50" relative="1" as="geometry">
            <mxPoint x="600" y="275" as="sourcePoint" />
            <mxPoint x="690" y="270" as="targetPoint" />
          </mxGeometry>
        </mxCell>
        <mxCell id="pxrOHtRDB23Sc_MLueAU-57" value="tem" style="rhombus;whiteSpace=wrap;html=1;" vertex="1" parent="1">
          <mxGeometry x="420" y="255" width="80" height="40" as="geometry" />
        </mxCell>
        <mxCell id="pxrOHtRDB23Sc_MLueAU-70" style="edgeStyle=none;shape=link;rounded=0;orthogonalLoop=1;jettySize=auto;html=1;exitX=0.5;exitY=1;exitDx=0;exitDy=0;entryX=0.5;entryY=0;entryDx=0;entryDy=0;" edge="1" parent="1" source="pxrOHtRDB23Sc_MLueAU-60" target="pxrOHtRDB23Sc_MLueAU-33">
          <mxGeometry relative="1" as="geometry" />
        </mxCell>
        <mxCell id="pxrOHtRDB23Sc_MLueAU-71" value="N" style="edgeLabel;html=1;align=center;verticalAlign=middle;resizable=0;points=[];" vertex="1" connectable="0" parent="pxrOHtRDB23Sc_MLueAU-70">
          <mxGeometry x="-0.3714" y="1" relative="1" as="geometry">
            <mxPoint x="-3" y="10" as="offset" />
          </mxGeometry>
        </mxCell>
        <mxCell id="pxrOHtRDB23Sc_MLueAU-60" value="participa" style="rhombus;whiteSpace=wrap;html=1;" vertex="1" parent="1">
          <mxGeometry x="260" y="180" width="80" height="40" as="geometry" />
        </mxCell>
        <mxCell id="pxrOHtRDB23Sc_MLueAU-61" value="N" style="endArrow=none;html=1;rounded=0;entryX=0.5;entryY=1;entryDx=0;entryDy=0;exitX=0.5;exitY=0;exitDx=0;exitDy=0;" edge="1" parent="1" source="pxrOHtRDB23Sc_MLueAU-60" target="pxrOHtRDB23Sc_MLueAU-2">
          <mxGeometry width="50" height="50" relative="1" as="geometry">
            <mxPoint x="510" y="285" as="sourcePoint" />
            <mxPoint x="550" y="285" as="targetPoint" />
          </mxGeometry>
        </mxCell>
        <mxCell id="pxrOHtRDB23Sc_MLueAU-63" value="produz" style="rhombus;whiteSpace=wrap;html=1;" vertex="1" parent="1">
          <mxGeometry x="440" y="170" width="80" height="40" as="geometry" />
        </mxCell>
        <mxCell id="pxrOHtRDB23Sc_MLueAU-64" value="1" style="endArrow=none;html=1;rounded=0;exitX=1;exitY=1;exitDx=0;exitDy=0;entryX=0;entryY=0;entryDx=0;entryDy=0;" edge="1" parent="1" source="pxrOHtRDB23Sc_MLueAU-2" target="pxrOHtRDB23Sc_MLueAU-63">
          <mxGeometry width="50" height="50" relative="1" as="geometry">
            <mxPoint x="390" y="130" as="sourcePoint" />
            <mxPoint x="435" y="130" as="targetPoint" />
          </mxGeometry>
        </mxCell>
        <mxCell id="pxrOHtRDB23Sc_MLueAU-66" value="" style="endArrow=none;html=1;rounded=0;entryX=0;entryY=0.5;entryDx=0;entryDy=0;exitX=0;exitY=1;exitDx=0;exitDy=0;" edge="1" parent="1" source="pxrOHtRDB23Sc_MLueAU-36" target="pxrOHtRDB23Sc_MLueAU-33">
          <mxGeometry width="50" height="50" relative="1" as="geometry">
            <mxPoint x="240" y="270" as="sourcePoint" />
            <mxPoint x="250" y="235" as="targetPoint" />
          </mxGeometry>
        </mxCell>
        <mxCell id="pxrOHtRDB23Sc_MLueAU-67" value="" style="endArrow=none;html=1;rounded=0;exitX=0.5;exitY=1;exitDx=0;exitDy=0;entryX=0.25;entryY=1;entryDx=0;entryDy=0;" edge="1" parent="1" source="pxrOHtRDB23Sc_MLueAU-34" target="pxrOHtRDB23Sc_MLueAU-33">
          <mxGeometry width="50" height="50" relative="1" as="geometry">
            <mxPoint x="570" y="350" as="sourcePoint" />
            <mxPoint x="340" y="295" as="targetPoint" />
          </mxGeometry>
        </mxCell>
        <mxCell id="pxrOHtRDB23Sc_MLueAU-73" value="N" style="endArrow=none;html=1;rounded=0;exitX=1;exitY=0.5;exitDx=0;exitDy=0;entryX=0;entryY=0.5;entryDx=0;entryDy=0;" edge="1" parent="1" source="pxrOHtRDB23Sc_MLueAU-33" target="pxrOHtRDB23Sc_MLueAU-57">
          <mxGeometry width="50" height="50" relative="1" as="geometry">
            <mxPoint x="360" y="220" as="sourcePoint" />
            <mxPoint x="415" y="265" as="targetPoint" />
          </mxGeometry>
        </mxCell>
        <mxCell id="pxrOHtRDB23Sc_MLueAU-77" value="autor" style="rhombus;whiteSpace=wrap;html=1;" vertex="1" parent="1">
          <mxGeometry x="340" y="180" width="80" height="40" as="geometry" />
        </mxCell>
        <mxCell id="pxrOHtRDB23Sc_MLueAU-78" value="N" style="endArrow=none;html=1;rounded=0;entryX=0.5;entryY=1;entryDx=0;entryDy=0;exitX=0.5;exitY=0;exitDx=0;exitDy=0;" edge="1" parent="1" source="pxrOHtRDB23Sc_MLueAU-77" target="pxrOHtRDB23Sc_MLueAU-2">
          <mxGeometry width="50" height="50" relative="1" as="geometry">
            <mxPoint x="310" y="190" as="sourcePoint" />
            <mxPoint x="350" y="150" as="targetPoint" />
          </mxGeometry>
        </mxCell>
        <mxCell id="pxrOHtRDB23Sc_MLueAU-79" style="edgeStyle=none;shape=link;rounded=0;orthogonalLoop=1;jettySize=auto;html=1;exitX=0.5;exitY=1;exitDx=0;exitDy=0;entryX=0.5;entryY=0;entryDx=0;entryDy=0;" edge="1" parent="1" source="pxrOHtRDB23Sc_MLueAU-77" target="pxrOHtRDB23Sc_MLueAU-33">
          <mxGeometry relative="1" as="geometry">
            <mxPoint x="310" y="230" as="sourcePoint" />
            <mxPoint x="350" y="265" as="targetPoint" />
          </mxGeometry>
        </mxCell>
        <mxCell id="pxrOHtRDB23Sc_MLueAU-80" value="N" style="edgeLabel;html=1;align=center;verticalAlign=middle;resizable=0;points=[];" vertex="1" connectable="0" parent="pxrOHtRDB23Sc_MLueAU-79">
          <mxGeometry x="-0.3714" y="1" relative="1" as="geometry">
            <mxPoint x="2" y="9" as="offset" />
          </mxGeometry>
        </mxCell>
        <mxCell id="pxrOHtRDB23Sc_MLueAU-81" value="Morada" style="rounded=0;whiteSpace=wrap;html=1;" vertex="1" parent="1">
          <mxGeometry x="300" y="-20" width="80" height="40" as="geometry" />
        </mxCell>
        <mxCell id="pxrOHtRDB23Sc_MLueAU-84" value="1" style="edgeStyle=none;shape=link;rounded=0;orthogonalLoop=1;jettySize=auto;html=1;exitX=0.5;exitY=0;exitDx=0;exitDy=0;entryX=0.5;entryY=1;entryDx=0;entryDy=0;" edge="1" parent="1" source="pxrOHtRDB23Sc_MLueAU-82" target="pxrOHtRDB23Sc_MLueAU-81">
          <mxGeometry y="-10" relative="1" as="geometry">
            <mxPoint as="offset" />
          </mxGeometry>
        </mxCell>
        <mxCell id="pxrOHtRDB23Sc_MLueAU-82" value="tem" style="rhombus;whiteSpace=wrap;html=1;" vertex="1" parent="1">
          <mxGeometry x="300" y="40" width="80" height="40" as="geometry" />
        </mxCell>
      </root>
    </mxGraphModel>
  </diagram>
</mxfile>
